<svg id="visual" viewBox="0 0 900 600" width="900" height="600" xmlns="http://www.w3.org/2000/svg" xmlns:xlink="http://www.w3.org/1999/xlink" version="1.1"><path d="M0 193L82 271L164 175L245 223L327 217L409 283L491 217L573 139L655 103L736 211L818 157L900 205L900 0L818 0L736 0L655 0L573 0L491 0L409 0L327 0L245 0L164 0L82 0L0 0Z" fill="#00cc8e"></path><path d="M0 313L82 415L164 301L245 325L327 289L409 373L491 301L573 217L655 223L736 319L818 289L900 295L900 203L818 155L736 209L655 101L573 137L491 215L409 281L327 215L245 221L164 173L82 269L0 191Z" fill="#00b388"></path><path d="M0 451L82 499L164 457L245 487L327 427L409 517L491 535L573 433L655 505L736 463L818 475L900 487L900 293L818 287L736 317L655 221L573 215L491 299L409 371L327 287L245 323L164 299L82 413L0 311Z" fill="#009b7f"></path><path d="M0 601L82 601L164 601L245 601L327 601L409 601L491 601L573 601L655 601L736 601L818 601L900 601L900 485L818 473L736 461L655 503L573 431L491 533L409 515L327 425L245 485L164 455L82 497L0 449Z" fill="#038373"></path></svg>